<svg width="28" height="28" viewBox="0 0 28 28" fill="none" xmlns="http://www.w3.org/2000/svg">
<path fill-rule="evenodd" clip-rule="evenodd" d="M3.26646 16.8008C3.38572 16.801 3.5053 16.8462 3.59556 16.9365L11.0643 24.4053C11.2453 24.5873 11.2453 24.8814 11.0643 25.0635L8.26451 27.8643C8.08245 28.0452 7.78836 28.0452 7.6063 27.8643L0.137554 20.3994C-0.0458512 20.2169 -0.0458512 19.9198 0.137554 19.7373L2.93736 16.9365C3.02815 16.8457 3.14724 16.8007 3.26646 16.8008ZM25.8338 11.7588C26.4002 11.7588 26.9683 11.9762 27.3983 12.4062C27.8299 12.8379 28.0176 13.4031 27.9979 13.9463C27.9781 14.4896 27.7719 15.0123 27.4501 15.4688C26.5656 16.7228 24.564 19.6199 23.495 21.168C22.5457 22.5424 21.2057 23.3339 19.6024 23.334H11.6678C11.5467 23.334 11.4408 23.3445 11.3407 23.3604L4.86119 16.8809C5.78324 15.961 6.88413 14.9357 8.86705 14.9355L18.6688 14.9346C19.5089 14.9474 20.2329 15.3834 20.6444 16.0332C20.8679 16.3895 21.0007 16.8091 21.0008 17.2666C21.0008 18.5674 19.9696 19.6035 18.6688 19.6035H13.5819C12.9039 19.5426 12.9039 20.5941 13.5819 20.5332H18.6688C20.4706 20.5331 21.9344 19.0684 21.9344 17.2666C21.9343 16.5548 21.7029 15.8982 21.3153 15.3613C22.3003 14.3763 23.2853 13.3913 24.2704 12.4062C24.7003 11.9763 25.2676 11.7589 25.8338 11.7588ZM14.0028 0C17.6057 0.000120077 20.535 2.92929 20.535 6.53223C20.5349 10.1351 17.6056 13.0673 14.0028 13.0674C10.3998 13.0674 7.46677 10.1351 7.46666 6.53223C7.46666 2.92921 10.3998 0 14.0028 0ZM14.0008 1.86328C13.7674 1.86328 13.534 2.01885 13.534 2.33008V3.33594C12.734 3.5466 12.1346 4.27377 12.1346 5.13672C12.1348 6.16209 12.9774 7.00293 14.0028 7.00293C14.5237 7.00304 14.9324 7.41562 14.9325 7.93652C14.9325 8.4575 14.5237 8.87098 14.0028 8.87109C13.4817 8.87109 13.0692 8.45757 13.0692 7.93652C13.0692 7.81273 13.02 7.69401 12.9325 7.60645C12.845 7.51893 12.7262 7.46983 12.6024 7.46973C12.4785 7.46973 12.359 7.51884 12.2713 7.60645C12.1839 7.694 12.1347 7.81277 12.1346 7.93652C12.1346 8.79945 12.734 9.52664 13.534 9.7373V10.7344C13.5342 11.3565 14.4674 11.3565 14.4676 10.7344V9.73828C15.2686 9.52881 15.8661 8.80066 15.8661 7.93652C15.866 6.91117 15.0281 6.07043 14.0028 6.07031C13.4818 6.07031 13.0693 5.65764 13.0692 5.13672C13.0692 4.61566 13.4817 4.20215 14.0028 4.20215C14.5237 4.20226 14.9325 4.61573 14.9325 5.13672C14.9311 5.19879 14.9419 5.26061 14.9647 5.31836C14.9875 5.37617 15.0218 5.4292 15.0653 5.47363C15.1086 5.51791 15.1605 5.55308 15.2176 5.57715C15.2749 5.60126 15.3371 5.61328 15.3993 5.61328C15.4613 5.61325 15.5227 5.60119 15.5799 5.57715C15.637 5.55312 15.6889 5.51787 15.7323 5.47363C15.7757 5.42924 15.81 5.3761 15.8329 5.31836C15.8557 5.26061 15.8674 5.19879 15.8661 5.13672C15.8661 4.27257 15.2686 3.54444 14.4676 3.33496V2.33008C14.4676 2.0188 14.2342 1.86332 14.0008 1.86328Z" fill="url(#paint0_linear_1_9180)"/>
<defs>
<linearGradient id="paint0_linear_1_9180" x1="13.9997" y1="28" x2="13.9997" y2="0" gradientUnits="userSpaceOnUse">
<stop stop-color="#E7E1D5"/>
<stop offset="0.45" stop-color="#D9B780"/>
<stop offset="0.45" stop-color="#E7E1D5"/>
<stop offset="1" stop-color="#D9B780"/>
</linearGradient>
</defs>
</svg>
